<svg width="410" height="197" viewBox="0 0 574 276" fill="none" xmlns="http://www.w3.org/2000/svg" role="img" aria-label="AI Studio — human approval for AI workflows">
  <defs>
    <linearGradient id="ai-bg" x1="20" y1="10" x2="552" y2="269" gradientUnits="userSpaceOnUse">
      <stop stop-color="#121A27"/>
      <stop offset="0.58" stop-color="#090E16"/>
      <stop offset="1" stop-color="#0E1520"/>
    </linearGradient>
    <linearGradient id="ai-accent" x1="370" y1="42" x2="536" y2="238" gradientUnits="userSpaceOnUse">
      <stop stop-color="#F0ABFC"/>
      <stop offset="0.52" stop-color="#A78BFA"/>
      <stop offset="1" stop-color="#60A5FA"/>
    </linearGradient>
    <radialGradient id="ai-glow" cx="0" cy="0" r="1" gradientTransform="translate(495 39) rotate(138) scale(228 192)" gradientUnits="userSpaceOnUse">
      <stop stop-color="#A855F7" stop-opacity="0.15"/>
      <stop offset="1" stop-color="#A855F7" stop-opacity="0"/>
    </radialGradient>
  </defs>
  <rect x="1" y="1" width="572" height="274" rx="25" fill="url(#ai-bg)"/>
  <rect x="1" y="1" width="572" height="274" rx="25" fill="url(#ai-glow)"/>
  <rect x="1" y="1" width="572" height="274" rx="25" stroke="#293548" stroke-width="2"/>
  <path d="M28 29H116" stroke="url(#ai-accent)" stroke-width="3" stroke-linecap="round"/>
  <text x="30" y="62" fill="#8B98AA" font-family="ui-monospace, SFMono-Regular, Menlo, monospace" font-size="12" font-weight="700" letter-spacing="1.8">03 / AI WORKFLOW</text>
  <rect x="439" y="29" width="100" height="27" rx="13.5" fill="#FFFFFF" fill-opacity="0.045" stroke="#FFFFFF" stroke-opacity="0.12"/>
  <circle cx="456" cy="42.5" r="3.5" fill="#A78BFA"/>
  <text x="467" y="47" fill="#DCE4EE" font-family="Inter, ui-sans-serif, system-ui, sans-serif" font-size="11" font-weight="700" letter-spacing="1.2">EXPLORING</text>

  <text x="30" y="123" fill="#F8FAFC" font-family="Inter, ui-sans-serif, system-ui, sans-serif" font-size="34" font-weight="750" letter-spacing="-1.2">AI Studio</text>
  <text x="30" y="158" fill="#D4DBE5" font-family="Inter, ui-sans-serif, system-ui, sans-serif" font-size="17" font-weight="570">Keep humans in the loop.</text>
  <text x="30" y="185" fill="#8793A4" font-family="Inter, ui-sans-serif, system-ui, sans-serif" font-size="14">Steer, review, and approve AI output with confidence.</text>

  <g transform="translate(411 89)">
    <rect x="0" y="0" width="104" height="25" rx="12.5" fill="#A78BFA" fill-opacity="0.12" stroke="#A78BFA" stroke-opacity="0.32"/>
    <circle cx="15" cy="12.5" r="4" fill="#C4B5FD"/>
    <path d="M29 12.5H84" stroke="#C4B5FD" stroke-opacity="0.6" stroke-width="3" stroke-linecap="round"/>
    <path d="M52 26V43" stroke="#6D5A83" stroke-width="1.5" stroke-dasharray="3 3"/>
    <rect x="0" y="44" width="104" height="25" rx="12.5" fill="#F0ABFC" fill-opacity="0.11" stroke="#F0ABFC" stroke-opacity="0.28"/>
    <circle cx="15" cy="56.5" r="4" fill="#F5D0FE"/>
    <path d="M29 56.5H75" stroke="#F5D0FE" stroke-opacity="0.6" stroke-width="3" stroke-linecap="round"/>
    <path d="M52 70V87" stroke="#6D5A83" stroke-width="1.5" stroke-dasharray="3 3"/>
    <rect x="0" y="88" width="104" height="25" rx="12.5" fill="#60A5FA" fill-opacity="0.1" stroke="#60A5FA" stroke-opacity="0.28"/>
    <path d="M11 100.5L15 104.5L21 96.5" stroke="#93C5FD" stroke-width="2" stroke-linecap="round" stroke-linejoin="round"/>
    <path d="M29 100.5H85" stroke="#93C5FD" stroke-opacity="0.6" stroke-width="3" stroke-linecap="round"/>
  </g>

  <g font-family="Inter, ui-sans-serif, system-ui, sans-serif" font-size="11" font-weight="650">
    <rect x="30" y="224" width="92" height="25" rx="12.5" fill="#FFFFFF" fill-opacity="0.05" stroke="#FFFFFF" stroke-opacity="0.08"/>
    <text x="47" y="240.5" fill="#BCC6D3">Human review</text>
    <rect x="130" y="224" width="89" height="25" rx="12.5" fill="#FFFFFF" fill-opacity="0.05" stroke="#FFFFFF" stroke-opacity="0.08"/>
    <text x="147" y="240.5" fill="#BCC6D3">AI workflow</text>
  </g>
</svg>
