<svg width="410" height="197" viewBox="0 0 574 276" fill="none" xmlns="http://www.w3.org/2000/svg" role="img" aria-label="Token Meter — native AI usage monitoring for macOS">
  <defs>
    <linearGradient id="tm-bg" x1="20" y1="12" x2="552" y2="268" gradientUnits="userSpaceOnUse">
      <stop stop-color="#121A27"/>
      <stop offset="0.56" stop-color="#090E16"/>
      <stop offset="1" stop-color="#0E1520"/>
    </linearGradient>
    <linearGradient id="tm-accent" x1="378" y1="37" x2="530" y2="232" gradientUnits="userSpaceOnUse">
      <stop stop-color="#67E8F9"/>
      <stop offset="0.52" stop-color="#818CF8"/>
      <stop offset="1" stop-color="#C084FC"/>
    </linearGradient>
    <radialGradient id="tm-glow" cx="0" cy="0" r="1" gradientTransform="translate(496 39) rotate(139) scale(238 195)" gradientUnits="userSpaceOnUse">
      <stop stop-color="#6366F1" stop-opacity="0.15"/>
      <stop offset="1" stop-color="#6366F1" stop-opacity="0"/>
    </radialGradient>
  </defs>
  <rect x="1" y="1" width="572" height="274" rx="25" fill="url(#tm-bg)"/>
  <rect x="1" y="1" width="572" height="274" rx="25" fill="url(#tm-glow)"/>
  <rect x="1" y="1" width="572" height="274" rx="25" stroke="#293548" stroke-width="2"/>
  <path d="M28 29H116" stroke="url(#tm-accent)" stroke-width="3" stroke-linecap="round"/>
  <text x="30" y="62" fill="#8B98AA" font-family="ui-monospace, SFMono-Regular, Menlo, monospace" font-size="12" font-weight="700" letter-spacing="1.8">01 / DEVELOPER TOOL</text>
  <rect x="440" y="29" width="99" height="27" rx="13.5" fill="#FFFFFF" fill-opacity="0.045" stroke="#FFFFFF" stroke-opacity="0.12"/>
  <circle cx="457" cy="42.5" r="3.5" fill="#34D399"/>
  <text x="468" y="47" fill="#DCE4EE" font-family="Inter, ui-sans-serif, system-ui, sans-serif" font-size="11" font-weight="700" letter-spacing="1.2">SHIPPED</text>

  <text x="30" y="123" fill="#F8FAFC" font-family="Inter, ui-sans-serif, system-ui, sans-serif" font-size="34" font-weight="750" letter-spacing="-1.2">TOKEN METER</text>
  <text x="30" y="158" fill="#D4DBE5" font-family="Inter, ui-sans-serif, system-ui, sans-serif" font-size="17" font-weight="570">Know your AI coding budget.</text>
  <text x="30" y="185" fill="#8793A4" font-family="Inter, ui-sans-serif, system-ui, sans-serif" font-size="14">Native usage monitoring for Claude Code and Codex.</text>

  <g transform="translate(407 82)">
    <circle cx="62" cy="62" r="58" fill="#FFFFFF" fill-opacity="0.035" stroke="#FFFFFF" stroke-opacity="0.08"/>
    <circle cx="62" cy="62" r="39" stroke="#26324B" stroke-width="9"/>
    <path d="M62 23C83.539 23 101 40.461 101 62C101 76.401 93.196 88.979 81.586 95.725" stroke="url(#tm-accent)" stroke-width="9" stroke-linecap="round"/>
    <text x="62" y="59" text-anchor="middle" fill="#F8FAFC" font-family="Inter, ui-sans-serif, system-ui, sans-serif" font-size="20" font-weight="750">68%</text>
    <text x="62" y="76" text-anchor="middle" fill="#7D8CA5" font-family="ui-monospace, SFMono-Regular, Menlo, monospace" font-size="8" font-weight="700" letter-spacing="1.1">WEEKLY</text>
  </g>

  <g font-family="Inter, ui-sans-serif, system-ui, sans-serif" font-size="11" font-weight="650">
    <rect x="30" y="224" width="64" height="25" rx="12.5" fill="#FFFFFF" fill-opacity="0.05" stroke="#FFFFFF" stroke-opacity="0.08"/>
    <text x="47" y="240.5" fill="#BCC6D3">macOS</text>
    <rect x="102" y="224" width="58" height="25" rx="12.5" fill="#FFFFFF" fill-opacity="0.05" stroke="#FFFFFF" stroke-opacity="0.08"/>
    <text x="120" y="240.5" fill="#BCC6D3">Swift</text>
  </g>
  <circle cx="540" cy="242" r="14" fill="#FFFFFF" fill-opacity="0.06" stroke="#FFFFFF" stroke-opacity="0.1"/>
  <path d="M535 242H545M545 242L541 238M545 242L541 246" stroke="#D8E1F0" stroke-width="1.4" stroke-linecap="round" stroke-linejoin="round"/>
</svg>
